<svg xmlns="http://www.w3.org/2000/svg"
     viewBox="0 0 32 32"
     fill="currentColor"
     aria-hidden="true">
  <path d="M19.11 17.21c-.27-.13-1.58-.78-1.82-.87
           -.24-.09-.42-.13-.6.14
           -.18.27-.69.87-.85 1.05
           -.16.18-.31.2-.58.07
           -1.6-.8-2.65-1.43-3.71-3.23
           -.28-.48.28-.45.8-1.5
           .09-.18.04-.34-.02-.47
           -.07-.13-.6-1.45-.82-1.99
           -.22-.53-.44-.46-.6-.47
           h-.51c-.18 0-.47.07-.72.34
           -.25.27-.95.93-.95 2.26
           0 1.33.97 2.61 1.1 2.79
           .13.18 1.9 2.9 4.6 4.07
           .64.28 1.14.45 1.53.58
           .64.2 1.22.17 1.68.1
           .51-.08 1.58-.65 1.8-1.28
           .22-.63.22-1.17.15-1.28
           -.07-.11-.24-.18-.51-.31z"/>
  <path d="M16.01 3C8.83 3 3 8.74 3 15.82
           c0 2.26.6 4.47 1.74 6.42L3 29l6.97-1.82
           a13.1 13.1 0 0 0 6.04 1.54h.01
           c7.18 0 13.01-5.74 13.01-12.82
           C29.02 8.74 23.19 3 16.01 3zm0 23.5
           c-1.92 0-3.8-.52-5.45-1.5
           l-.39-.23-4.14 1.08 1.1-4.03
           -.25-.41a10.52 10.52 0 0 1-1.61-5.58
           c0-5.82 4.82-10.56 10.74-10.56
           5.92 0 10.74 4.74 10.74 10.56
           0 5.82-4.82 10.56-10.74 10.56z"/>
</svg>
